<svg width="72" height="72" viewBox="0 0 72 72" fill="none" xmlns="http://www.w3.org/2000/svg">
<path fill-rule="evenodd" clip-rule="evenodd" d="M36 65C52.0163 65 65 52.0163 65 36C65 19.9837 52.0163 7 36 7C19.9837 7 7 19.9837 7 36C7 52.0163 19.9837 65 36 65ZM36 68C53.6731 68 68 53.6731 68 36C68 18.3269 53.6731 4 36 4C18.3269 4 4 18.3269 4 36C4 53.6731 18.3269 68 36 68Z" fill="#539099"/>
<path fill-rule="evenodd" clip-rule="evenodd" d="M52.5608 27.5607L34.975 45.1464C33.6082 46.5133 31.3921 46.5133 30.0252 45.1464L20.9395 36.0607L23.0608 33.9393L32.1466 43.0251C32.3418 43.2204 32.6584 43.2204 32.8537 43.0251L50.4395 25.4393L52.5608 27.5607Z" fill="#539099"/>
</svg>
