<svg width="72" height="72" viewBox="0 0 72 72" fill="none" xmlns="http://www.w3.org/2000/svg">
<path d="M57.1117 10.6875H61.1525V9.1875H12.3477V10.6875H15.7784C16.036 23.2657 22.7306 33.7485 31.6527 36.5625C22.6419 39.4044 15.9017 50.068 15.7712 62.8125H12.3477V64.3125H61.1525V62.8125H57.1189C56.9883 50.068 50.2481 39.4044 41.2374 36.5625C50.1594 33.7485 56.854 23.2657 57.1117 10.6875ZM55.619 62.8125H17.271C17.4209 48.7179 25.9617 37.3125 36.445 37.3125C46.9283 37.3125 55.4692 48.7179 55.619 62.8125ZM36.445 35.8125C26.0549 35.8125 17.5741 24.6087 17.2781 10.6875H55.612C55.3159 24.6087 46.8351 35.8125 36.445 35.8125Z" fill="#539099"/>
<path fill-rule="evenodd" clip-rule="evenodd" d="M61.9025 11.4375H57.8392C57.3722 23.0305 51.5199 32.9155 43.3459 36.5625C51.6077 40.2484 57.4989 50.3063 57.8538 62.0625H61.9025V65.0625H11.5977V62.0625H15.0362C15.3911 50.3063 21.2824 40.2484 29.5441 36.5625C21.3702 32.9155 15.5179 23.0305 15.0508 11.4375H11.5977V8.4375H61.9025V11.4375ZM15.7784 10.6875C16.025 22.7285 22.1704 32.8492 30.5219 36.1604C30.8946 36.3081 31.2716 36.4423 31.6527 36.5625C31.2716 36.6827 30.8946 36.8169 30.5219 36.9646C22.0836 40.3101 15.8962 50.607 15.7712 62.8125H12.3477V64.3125H61.1525V62.8125H57.1189C56.9938 50.607 50.8064 40.3101 42.3681 36.9646C41.9955 36.8169 41.6184 36.6827 41.2374 36.5625C41.6184 36.4423 41.9955 36.3081 42.3681 36.1604C50.7196 32.8492 56.8651 22.7285 57.1117 10.6875H61.1525V9.1875H12.3477V10.6875H15.7784ZM55.6031 62.0625C55.1645 48.3155 46.7417 37.3125 36.445 37.3125C26.1483 37.3125 17.7255 48.3155 17.287 62.0625C17.279 62.3116 17.2737 62.5616 17.271 62.8125H55.619C55.6163 62.5616 55.611 62.3116 55.6031 62.0625ZM54.8527 62.0625C54.6376 55.4624 52.5432 49.5362 49.3073 45.2274C45.948 40.7541 41.3958 38.0625 36.445 38.0625C31.4942 38.0625 26.942 40.7541 23.5827 45.2274C20.3469 49.5362 18.2525 55.4624 18.0374 62.0625H54.8527ZM23.6731 28.0163C27.0234 32.4185 31.5381 35.0625 36.445 35.0625C41.3519 35.0625 45.8666 32.4185 49.2169 28.0163C52.4414 23.7793 54.5538 17.9479 54.8373 11.4375H18.0527C18.3362 17.9479 20.4486 23.7793 23.6731 28.0163ZM17.302 11.4375C17.8804 25.0089 26.2422 35.8125 36.445 35.8125C46.6479 35.8125 55.0096 25.0089 55.588 11.4375C55.5986 11.1884 55.6066 10.9384 55.612 10.6875H17.2781C17.2834 10.9384 17.2914 11.1884 17.302 11.4375Z" fill="#539099"/>
</svg>
