<svg width="160" height="48" viewBox="0 0 160 48" fill="none" xmlns="http://www.w3.org/2000/svg">
<g clip-path="url(#clip0_646_1213)">
<path d="M33.663 45.76C33.0293 45.6 32.3957 46 32.3164 46.56C32.158 47.2 32.5541 47.84 33.1085 47.92C33.7422 48.08 34.3759 47.68 34.4551 47.12C34.6927 46.48 34.2967 45.92 33.663 45.76Z" fill="#92ADB3"/>
<path d="M27.7225 44.32C26.9304 44.08 26.0591 44.64 25.9007 45.44C25.6631 46.24 26.2175 47.12 27.0096 47.28C27.8017 47.52 28.673 46.96 28.8314 46.16C29.069 45.36 28.5938 44.48 27.7225 44.32Z" fill="#92ADB3"/>
<path d="M21.4653 41.28C20.5148 41.04 19.4851 41.6 19.2475 42.64C19.0098 43.6 19.5643 44.64 20.594 44.88C21.5445 45.12 22.5742 44.56 22.8118 43.52C23.0494 42.56 22.4158 41.52 21.4653 41.28Z" fill="#92ADB3"/>
<path d="M16.2372 40.88C17.4184 40.88 18.3759 39.9129 18.3759 38.72C18.3759 37.5271 17.4184 36.56 16.2372 36.56C15.0561 36.56 14.0986 37.5271 14.0986 38.72C14.0986 39.9129 15.0561 40.88 16.2372 40.88Z" fill="#92ADB3"/>
<path d="M12.1997 35.7318C13.582 35.5079 14.5227 34.1946 14.301 32.7986C14.0792 31.4026 12.779 30.4524 11.3968 30.6763C10.0145 30.9003 9.0738 32.2136 9.29553 33.6096C9.51727 35.0056 10.8175 35.9558 12.1997 35.7318Z" fill="#92ADB3"/>
<path d="M12.0393 26.72C12.1185 25.68 11.564 24.72 10.6135 24.32C9.10856 23.68 7.4452 24.64 7.28678 26.32C7.20757 27.36 7.76203 28.32 8.71252 28.72C10.2175 29.36 11.8808 28.32 12.0393 26.72Z" fill="#92ADB3"/>
<path d="M8.5701 21.9366C9.44778 21.6626 9.93936 20.7219 9.66809 19.8354C9.39681 18.9489 8.46539 18.4524 7.58771 18.7264C6.71003 19.0004 6.21845 19.9411 6.48973 20.8276C6.76101 21.7141 7.69242 22.2106 8.5701 21.9366Z" fill="#92ADB3"/>
<path d="M7.36628 16.4C8.19744 16.4 8.87123 15.7195 8.87123 14.88C8.87123 14.0405 8.19744 13.36 7.36628 13.36C6.53512 13.36 5.86133 14.0405 5.86133 14.88C5.86133 15.7195 6.53512 16.4 7.36628 16.4Z" fill="#92ADB3"/>
<path d="M11.8017 13.2C12.7641 13.2 13.5442 12.412 13.5442 11.44C13.5442 10.468 12.7641 9.67999 11.8017 9.67999C10.8393 9.67999 10.0591 10.468 10.0591 11.44C10.0591 12.412 10.8393 13.2 11.8017 13.2Z" fill="#92ADB3"/>
<path d="M18.376 8.23998C17.4255 7.67998 16.1581 7.91998 15.5245 8.95998C14.97 9.91998 15.2077 11.2 16.2374 11.84C17.1879 12.4 18.4552 12.16 19.0888 11.12C19.6433 10.16 19.3265 8.87998 18.376 8.23998Z" fill="#92ADB3"/>
<path d="M24.5541 10.72C25.1086 9.83999 24.7918 8.63999 23.9205 8.07999C23.0492 7.51999 21.8611 7.83999 21.3066 8.71999C20.7521 9.59999 21.069 10.8 21.9403 11.36C22.8908 11.84 24.0789 11.6 24.5541 10.72Z" fill="#92ADB3"/>
<path d="M28.9153 10.7801C29.2238 10.1455 28.9646 9.37852 28.3364 9.06691C27.7081 8.75529 26.9487 9.01708 26.6402 9.65161C26.3317 10.2861 26.5908 11.0531 27.2191 11.3648C27.8474 11.6764 28.6068 11.4146 28.9153 10.7801Z" fill="#92ADB3"/>
<path d="M32.5543 10.64C31.9998 10.24 31.2869 10.4 30.8909 10.96C30.4949 11.52 30.6533 12.24 31.2077 12.64C31.7622 13.04 32.475 12.88 32.8711 12.32C33.2671 11.76 33.1087 11.04 32.5543 10.64Z" fill="#92ADB3"/>
<path d="M35.8019 10.1599C35.0891 10.7999 35.0891 11.8399 35.6435 12.4799C36.2772 13.1999 37.3069 13.1999 37.9405 12.6399C38.5742 12.0799 38.6534 10.9599 38.099 10.3199C37.5445 9.59994 36.5148 9.59994 35.8019 10.1599Z" fill="#92ADB3"/>
<path d="M36.8317 18.1599C37.4653 17.5999 37.5445 16.6399 36.9901 15.9999C36.4356 15.3599 35.4851 15.2799 34.8515 15.8399C34.2178 16.3999 34.1386 17.3599 34.693 17.9999C35.2475 18.7199 36.198 18.7199 36.8317 18.1599Z" fill="#92ADB3"/>
<path d="M33.663 21.92C34.2317 21.92 34.6927 21.4544 34.6927 20.88C34.6927 20.3057 34.2317 19.84 33.663 19.84C33.0943 19.84 32.6333 20.3057 32.6333 20.88C32.6333 21.4544 33.0943 21.92 33.663 21.92Z" fill="#92ADB3"/>
<path d="M0.316663 13.84C-0.158585 14.32 -0.0793768 15.04 0.316663 15.44C0.79191 15.92 1.50478 15.84 1.90082 15.44C2.37607 14.96 2.29686 14.24 1.90082 13.84C1.50478 13.36 0.79191 13.36 0.316663 13.84Z" fill="#92ADB3"/>
<path d="M5.06892 11.44C5.90008 11.44 6.57387 10.7594 6.57387 9.91996C6.57387 9.08049 5.90008 8.39996 5.06892 8.39996C4.23775 8.39996 3.56396 9.08049 3.56396 9.91996C3.56396 10.7594 4.23775 11.44 5.06892 11.44Z" fill="#92ADB3"/>
<path d="M11.8809 6.96003C12.5938 6.24003 12.5938 5.04003 11.8809 4.32003C11.1681 3.60003 9.97995 3.60003 9.26708 4.32003C8.5542 5.04003 8.5542 6.24003 9.26708 6.96003C9.97995 7.76003 11.1681 7.76003 11.8809 6.96003Z" fill="#92ADB3"/>
<path d="M16.7128 5.84002C17.894 5.84002 18.8514 4.87295 18.8514 3.68002C18.8514 2.48708 17.894 1.52002 16.7128 1.52002C15.5317 1.52002 14.5742 2.48708 14.5742 3.68002C14.5742 4.87295 15.5317 5.84002 16.7128 5.84002Z" fill="#92ADB3"/>
<path d="M23.6299 5.12022C25.0298 5.10618 26.1533 3.94865 26.1394 2.53481C26.1255 1.12096 24.9794 -0.0138155 23.5796 0.000220459C22.1797 0.0142564 21.0562 1.17179 21.0701 2.58563C21.084 3.99948 22.23 5.13426 23.6299 5.12022Z" fill="#92ADB3"/>
<path d="M29.0693 6.08005C29.8614 6.64005 30.9703 6.64005 31.8416 6.08005C33.1882 5.12005 33.1089 3.12005 31.7624 2.16005C30.9703 1.60005 29.8614 1.60005 28.9901 2.16005C27.7228 3.12005 27.7228 5.12005 29.0693 6.08005Z" fill="#92ADB3"/>
<path d="M37.7029 6.95997C38.3366 6.31997 38.3366 5.27997 37.7029 4.63997C37.0693 3.99997 36.0396 3.99997 35.4059 4.63997C34.7722 5.27997 34.7722 6.31997 35.4059 6.95997C36.0396 7.59997 37.0693 7.59997 37.7029 6.95997Z" fill="#92ADB3"/>
<path d="M42.297 9.12C43.0098 8.72 43.2475 7.84 42.8514 7.12C42.4554 6.4 41.5841 6.16 40.8712 6.56C40.1583 6.96 39.9207 7.84 40.3168 8.56C40.7128 9.28 41.5841 9.52 42.297 9.12Z" fill="#92ADB3"/>
<path d="M41.4254 11.92C40.5541 12.4 40.3165 13.44 40.7125 14.32C41.1877 15.2 42.2175 15.44 43.0887 15.04C43.96 14.56 44.1977 13.52 43.8016 12.64C43.3264 11.76 42.2967 11.44 41.4254 11.92Z" fill="#92ADB3"/>
<path d="M40.7127 21.04C41.8501 21.04 42.7721 20.1088 42.7721 18.96C42.7721 17.8113 41.8501 16.88 40.7127 16.88C39.5753 16.88 38.6533 17.8113 38.6533 18.96C38.6533 20.1088 39.5753 21.04 40.7127 21.04Z" fill="#92ADB3"/>
<path d="M39.3972 25.5808C40.2276 24.9319 40.3798 23.7259 39.7373 22.8873C39.0948 22.0486 37.9007 21.8948 37.0704 22.5438C36.24 23.1927 36.0878 24.3987 36.7303 25.2373C37.3728 26.076 38.5668 26.2298 39.3972 25.5808Z" fill="#92ADB3"/>
<path d="M34.6928 26.88C34.0591 27.2 33.8215 28 34.2175 28.64C34.5344 29.28 35.3265 29.52 35.9601 29.2C36.5938 28.88 36.8314 28.08 36.5146 27.44C36.1185 26.72 35.3265 26.56 34.6928 26.88Z" fill="#92ADB3"/>
<path d="M33.188 30.4C32.8712 29.76 32.1583 29.52 31.6038 29.84C30.9702 30.16 30.7326 30.88 31.0494 31.44C31.3662 32.08 32.0791 32.32 32.6335 32C33.188 31.76 33.5048 31.04 33.188 30.4Z" fill="#92ADB3"/>
<path d="M29.4652 33.84C28.5939 34 28.0395 34.88 28.1979 35.84C28.3563 36.72 29.2276 37.28 30.1781 37.12C31.0494 36.96 31.6038 36.08 31.4454 35.12C31.2078 34.24 30.3365 33.68 29.4652 33.84Z" fill="#92ADB3"/>
<path d="M23.9998 32C24.1582 32.8 24.9502 33.36 25.8215 33.2C26.6928 33.04 27.1681 32.24 27.0097 31.36C26.8512 30.56 26.0592 30 25.1879 30.16C24.3958 30.4 23.8413 31.2 23.9998 32Z" fill="#92ADB3"/>
<path d="M24.3168 27.68C24.2376 27.12 23.6831 26.72 23.0494 26.88C22.495 26.96 22.099 27.52 22.2574 28.16C22.3366 28.72 22.891 29.12 23.5247 28.96C24.0791 28.8 24.396 28.24 24.3168 27.68Z" fill="#92ADB3"/>
<path d="M45.1482 3.59999C45.7819 3.43999 46.0987 2.79999 45.9403 2.15999C45.7819 1.51999 45.1482 1.19999 44.5146 1.35999C43.8809 1.51999 43.5641 2.15999 43.7225 2.79999C43.9601 3.43999 44.5938 3.83999 45.1482 3.59999Z" fill="#92ADB3"/>
<path d="M45.4651 8.79999C45.7027 9.59999 46.4948 10.08 47.3661 9.83999C48.1582 9.59999 48.6334 8.79999 48.3958 7.91999C48.1582 7.11999 47.3661 6.63999 46.4948 6.87999C45.7819 7.11999 45.3067 7.91999 45.4651 8.79999Z" fill="#92ADB3"/>
<path d="M49.584 14.72C49.3464 13.76 48.3167 13.2 47.287 13.44C46.2573 13.68 45.782 14.72 46.0196 15.76C46.2573 16.72 47.287 17.28 48.3167 17.04C49.3464 16.8 49.9008 15.76 49.584 14.72Z" fill="#92ADB3"/>
<path d="M45.9406 19.52C44.7525 19.84 44.1188 21.04 44.4356 22.24C44.7525 23.44 45.9406 24.08 47.1287 23.76C48.3168 23.44 48.9505 22.24 48.6337 21.04C48.2376 19.84 47.0495 19.2 45.9406 19.52Z" fill="#92ADB3"/>
<path d="M44.2571 30.7876C45.6475 30.6237 46.6432 29.3524 46.481 27.948C46.3187 26.5437 45.06 25.538 43.6695 25.7019C42.2791 25.8658 41.2834 27.1371 41.4456 28.5414C41.6079 29.9458 42.8666 30.9515 44.2571 30.7876Z" fill="#92ADB3"/>
<path d="M38.2574 31.2801C37.3861 31.6801 36.8316 32.7201 36.9108 33.6801C37.0692 35.3601 38.8118 36.3201 40.3168 35.6001C41.1881 35.2001 41.7425 34.1601 41.6633 33.2001C41.4257 31.5201 39.7623 30.5601 38.2574 31.2801Z" fill="#92ADB3"/>
<path d="M34.7723 39.6001C35.6909 39.6001 36.4356 38.8479 36.4356 37.9201C36.4356 36.9922 35.6909 36.2401 34.7723 36.2401C33.8536 36.2401 33.1089 36.9922 33.1089 37.9201C33.1089 38.8479 33.8536 39.6001 34.7723 39.6001Z" fill="#92ADB3"/>
<path d="M31.2262 42.6819C31.9558 42.2798 32.2245 41.3564 31.8263 40.6196C31.4282 39.8827 30.514 39.6113 29.7844 40.0134C29.0548 40.4155 28.7861 41.3388 29.1843 42.0757C29.5824 42.8126 30.4966 43.084 31.2262 42.6819Z" fill="#92ADB3"/>
<path d="M26.8902 39.8663C27.3138 38.9934 26.9565 37.939 26.0923 37.5112C25.2281 37.0834 24.1841 37.4442 23.7606 38.3171C23.337 39.19 23.6943 40.2444 24.5585 40.6722C25.4227 41.0999 26.4667 40.7391 26.8902 39.8663Z" fill="#92ADB3"/>
<path d="M21.3861 32.9601C20.2772 32.9601 19.3267 33.8401 19.3267 34.9601C19.3267 36.0801 20.1979 37.0401 21.3069 37.0401C22.4158 37.0401 23.3663 36.1601 23.3663 35.0401C23.4455 33.9201 22.5742 32.9601 21.3861 32.9601Z" fill="#92ADB3"/>
<path d="M18.2179 32.16C19.2678 32.16 20.1189 31.3004 20.1189 30.24C20.1189 29.1796 19.2678 28.32 18.2179 28.32C17.168 28.32 16.3169 29.1796 16.3169 30.24C16.3169 31.3004 17.168 32.16 18.2179 32.16Z" fill="#92ADB3"/>
<path d="M16.3168 27.04C17.0297 27.04 17.6634 26.48 17.6634 25.76C17.6634 25.04 17.1089 24.4 16.3961 24.4C15.6832 24.4 15.0495 24.96 15.0495 25.68C14.9703 26.48 15.5248 27.04 16.3168 27.04Z" fill="#92ADB3"/>
<path d="M16.6335 21.6C16.7127 20.96 16.2374 20.32 15.5246 20.24C14.8909 20.16 14.2572 20.64 14.178 21.36C14.0988 22 14.5741 22.64 15.2869 22.72C15.9998 22.72 16.5543 22.24 16.6335 21.6Z" fill="#92ADB3"/>
<path d="M14.4179 17.2772C14.4892 16.3521 13.8045 15.5439 12.8886 15.4719C11.9727 15.3999 11.1724 16.0915 11.1012 17.0166C11.0299 17.9416 11.7146 18.7499 12.6305 18.8218C13.5464 18.8938 14.3467 18.2022 14.4179 17.2772Z" fill="#92ADB3"/>
<path d="M18.0591 16.88C18.8903 16.88 19.5641 16.1994 19.5641 15.36C19.5641 14.5205 18.8903 13.84 18.0591 13.84C17.228 13.84 16.5542 14.5205 16.5542 15.36C16.5542 16.1994 17.228 16.88 18.0591 16.88Z" fill="#92ADB3"/>
<path d="M21.4652 14.96C21.3068 15.52 21.5444 16.08 22.0988 16.32C22.6533 16.48 23.2077 16.24 23.4454 15.68C23.6038 15.12 23.3662 14.56 22.8117 14.32C22.2572 14.08 21.7028 14.4 21.4652 14.96Z" fill="#92ADB3"/>
<path d="M60.604 18.6354H63.0285V25.5022L68.0581 18.6354H70.3471V29.1765H67.9377V22.3248L62.908 29.1765H60.604V18.6354Z" fill="#92ADB3"/>
<path d="M81.0281 20.6231H77.6549V29.1765H75.2455V20.6231H71.8874V18.6354H81.0281V20.6231Z" fill="#92ADB3"/>
<path d="M90.1978 18.4547C91.2418 18.4547 92.1755 18.6906 92.9987 19.1624C93.832 19.6242 94.4845 20.2717 94.9564 21.105C95.4282 21.9282 95.6641 22.8619 95.6641 23.9059C95.6641 24.95 95.4282 25.8887 94.9564 26.7219C94.4845 27.5452 93.832 28.1927 92.9987 28.6645C92.1755 29.1263 91.2418 29.3572 90.1978 29.3572C89.2641 29.3572 88.4208 29.1966 87.6679 28.8754C86.925 28.5541 86.3026 28.0873 85.8006 27.4749L87.3516 26.0292C88.0946 26.8625 89.0031 27.2791 90.0773 27.2791C90.8503 27.2791 91.5029 27.0532 92.0349 26.6015C92.5771 26.1497 92.9284 25.5423 93.0891 24.7794H88.8124V22.9121H93.0589C92.8883 22.1892 92.5369 21.612 92.0048 21.1803C91.4727 20.7486 90.8302 20.5328 90.0773 20.5328C89.0031 20.5328 88.0946 20.9494 87.3516 21.7826L85.8006 20.337C86.3026 19.7246 86.925 19.2578 87.6679 18.9365C88.4208 18.6153 89.2641 18.4547 90.1978 18.4547Z" fill="#92ADB3"/>
<path d="M101.656 24.9299H99.9689V29.1765H97.5445V18.6354H99.9689V22.897H101.716L104.487 18.6354H107.062L103.613 23.7252L107.167 29.1765H104.396L101.656 24.9299Z" fill="#92ADB3"/>
<path d="M113.25 29.3572C112.176 29.3572 111.202 29.1263 110.329 28.6645C109.465 28.1927 108.783 27.5452 108.281 26.7219C107.789 25.8887 107.543 24.95 107.543 23.9059C107.543 22.8619 107.789 21.9282 108.281 21.105C108.783 20.2717 109.465 19.6242 110.329 19.1624C111.202 18.6906 112.181 18.4547 113.265 18.4547C114.179 18.4547 115.002 18.6153 115.735 18.9365C116.478 19.2578 117.1 19.7196 117.602 20.3219L116.036 21.7676C115.323 20.9444 114.44 20.5328 113.386 20.5328C112.733 20.5328 112.151 20.6783 111.639 20.9695C111.127 21.2506 110.725 21.6471 110.434 22.1591C110.153 22.6711 110.013 23.2534 110.013 23.9059C110.013 24.5585 110.153 25.1408 110.434 25.6528C110.725 26.1648 111.127 26.5663 111.639 26.8575C112.151 27.1386 112.733 27.2791 113.386 27.2791C114.44 27.2791 115.323 26.8625 116.036 26.0292L117.602 27.4749C117.1 28.0873 116.478 28.5541 115.735 28.8754C114.992 29.1966 114.164 29.3572 113.25 29.3572Z" fill="#92ADB3"/>
<path d="M128.8 18.6354V29.1765H126.375V20.6231H121.617V29.1765H119.192V18.6354H128.8Z" fill="#92ADB3"/>
<path d="M139.575 27.2189V29.1765H131.413V18.6354H139.379V20.593H133.837V22.8819H138.731V24.7794H133.837V27.2189H139.575Z" fill="#92ADB3"/>
<path d="M146.108 18.6354C147.042 18.6354 147.85 18.791 148.532 19.1022C149.225 19.4134 149.757 19.8551 150.129 20.4274C150.5 20.9996 150.686 21.6772 150.686 22.4603C150.686 23.2333 150.5 23.911 150.129 24.4932C149.757 25.0655 149.225 25.5072 148.532 25.8184C147.85 26.1196 147.042 26.2702 146.108 26.2702H143.985V29.1765H141.545V18.6354H146.108ZM145.972 24.2824C146.705 24.2824 147.263 24.1268 147.644 23.8156C148.025 23.4943 148.216 23.0426 148.216 22.4603C148.216 21.868 148.025 21.4162 147.644 21.105C147.263 20.7837 146.705 20.6231 145.972 20.6231H143.985V24.2824H145.972Z" fill="#92ADB3"/>
<path d="M160.058 20.6231H156.684V29.1765H154.275V20.6231H150.917V18.6354H160.058V20.6231Z" fill="#92ADB3"/>
</g>
<defs>
<clipPath id="clip0_646_1213">
<rect width="160" height="48" fill="white"/>
</clipPath>
</defs>
</svg>
