<svg width="96" height="96" viewBox="0 0 96 96" fill="none" xmlns="http://www.w3.org/2000/svg">
<path d="M33.75 81.75C52.3896 81.75 67.5 66.6396 67.5 48C67.5 29.3604 52.3896 14.25 33.75 14.25C15.1104 14.25 0 29.3604 0 48C0 66.6396 15.1104 81.75 33.75 81.75Z" fill="#457980"/>
<path d="M33.75 78.375C50.5257 78.375 64.125 64.7757 64.125 48C64.125 31.2243 50.5257 17.625 33.75 17.625C16.9743 17.625 3.375 31.2243 3.375 48C3.375 64.7757 16.9743 78.375 33.75 78.375Z" fill="#6EC0CC"/>
<path d="M35.625 14.4375H31.875V21.9375H35.625V14.4375Z" fill="#457980"/>
<path d="M35.625 74.0625H31.875V81.5625H35.625V74.0625Z" fill="#457980"/>
<path d="M67.3125 49.875V46.125H59.8125V49.875H67.3125Z" fill="#457980"/>
<path d="M7.6875 49.875L7.6875 46.125H0.1875L0.1875 49.875H7.6875Z" fill="#457980"/>
<path d="M40.3401 65.3906V61.6406H27.1602V65.3906H40.3401Z" fill="#457980"/>
<path d="M33.0738 52.3651L21.1111 41.6447L23.6138 38.852L32.9262 47.1974L49.4561 30.589L52.114 33.2343L33.0738 52.3651Z" fill="#457980"/>
<path d="M33.75 81.75C52.3896 81.75 67.5 66.6396 67.5 48C67.5 29.3604 52.3896 14.25 33.75 14.25C15.1104 14.25 0 29.3604 0 48C0 66.6396 15.1104 81.75 33.75 81.75Z" fill="url(#paint0_linear_514_281)"/>
<defs>
<linearGradient id="paint0_linear_514_281" x1="0" y1="48" x2="67.5" y2="48" gradientUnits="userSpaceOnUse">
<stop stop-color="white" stop-opacity="0.33"/>
<stop offset="1" stop-color="white" stop-opacity="0"/>
</linearGradient>
</defs>
</svg>
