<svg width="96" height="96" viewBox="0 0 96 96" fill="none" xmlns="http://www.w3.org/2000/svg">
<path d="M47.8799 59.3805C53.8508 59.3805 58.6912 54.5401 58.6912 48.5692C58.6912 42.5983 53.8508 37.758 47.8799 37.758C41.909 37.758 37.0686 42.5983 37.0686 48.5692C37.0686 54.5401 41.909 59.3805 47.8799 59.3805Z" fill="#6EC0CC"/>
<path d="M47.8799 53.9749C50.8653 53.9749 53.2855 51.5547 53.2855 48.5692C53.2855 45.5838 50.8653 43.1636 47.8799 43.1636C44.8944 43.1636 42.4742 45.5838 42.4742 48.5692C42.4742 51.5547 44.8944 53.9749 47.8799 53.9749Z" fill="#457980"/>
<path d="M19.1161 48.5692C26.0468 39.7517 36.5594 34.5904 47.9356 34.5904C59.3118 34.5904 69.8244 39.7517 76.755 48.5692H83.9709C80.2082 42.6094 74.98 37.6301 68.847 34.1671C62.4985 30.5823 55.2676 28.6875 47.9356 28.6875C40.6037 28.6875 33.3726 30.5823 27.024 34.1671C20.8912 37.6301 15.663 42.6095 11.9004 48.5692H19.1161Z" fill="#6EC0CC"/>
<path d="M76.8026 48.5692C70.0912 57.7626 59.5089 63.1814 48.0185 63.1814C36.5283 63.1814 25.946 57.7626 19.2345 48.5692H14.5101L14.4573 48.6024C17.9608 54.1711 22.8384 58.8231 28.5629 62.0554C34.4691 65.3905 41.1967 67.1532 48.0185 67.1532C54.8405 67.1532 61.5682 65.3905 67.4744 62.0554C73.1988 58.8229 78.0766 54.171 81.5801 48.6023L81.5275 48.5692H76.8026Z" fill="#457980"/>
<path d="M83.9709 48.5692C80.2082 42.6094 74.98 37.6301 68.847 34.1671C62.4985 30.5823 55.2676 28.6875 47.9356 28.6875C40.6037 28.6875 33.3726 30.5823 27.024 34.1671C20.8912 37.6301 15.663 42.6095 11.9004 48.5692H14.51L14.4572 48.6024C17.9607 54.1711 22.8384 58.823 28.5629 62.0553C34.469 65.3904 41.1967 67.1532 48.0185 67.1532C54.8404 67.1532 61.5681 65.3904 67.4744 62.0553C73.1988 58.8229 78.0765 54.1709 81.58 48.6022L81.5275 48.5692H83.9709Z" fill="url(#paint0_linear_513_241)"/>
<defs>
<linearGradient id="paint0_linear_513_241" x1="11.9004" y1="47.9203" x2="83.9709" y2="47.9203" gradientUnits="userSpaceOnUse">
<stop stop-color="white" stop-opacity="0.33"/>
<stop offset="1" stop-color="white" stop-opacity="0"/>
</linearGradient>
</defs>
</svg>
