<svg width="24" height="24" viewBox="0 0 24 24" fill="none" xmlns="http://www.w3.org/2000/svg">
<g clip-path="url(#clip0_519_944)">
<path d="M10.3947 3.51479L19.1093 12.2294C21.0061 14.1262 21.0061 17.2126 19.1093 19.1094C17.2125 21.0062 14.1262 21.0062 12.2293 19.1094L3.51472 10.3948C2.37663 9.25667 2.37663 7.40489 3.51472 6.2668C4.65281 5.12872 6.50459 5.12872 7.64268 6.2668L16.3573 14.9814C16.7366 15.3608 16.7366 15.9781 16.3573 16.3574C15.9779 16.7368 15.3607 16.7368 14.9813 16.3574L6.26667 7.64281L4.89073 9.01875L13.6053 17.7334C14.7434 18.8715 16.5952 18.8715 17.7333 17.7334C18.8714 16.5953 18.8714 14.7435 17.7333 13.6054L9.01869 4.8908C7.12186 2.99397 4.03554 2.99397 2.13875 4.89076C0.241955 6.78756 0.241922 9.87391 2.13875 11.7707L10.8534 20.4854C13.5089 23.1409 17.8298 23.1409 20.4853 20.4854C23.1408 17.8298 23.1408 13.509 20.4853 10.8534L11.7707 2.13881L10.3947 3.51479Z" fill="#6EC0CC"/>
</g>
<defs>
<clipPath id="clip0_519_944">
<rect width="24" height="24" fill="white"/>
</clipPath>
</defs>
</svg>
