<svg width="96" height="96" viewBox="0 0 96 96" fill="none" xmlns="http://www.w3.org/2000/svg">
<path d="M0 16.157V79.8429H38.0375L53.9217 62.3666V16.157H0Z" fill="#6EC0CC"/>
<path d="M53.9217 62.3666H38.0375V79.8429L53.9217 62.3666Z" fill="#457980"/>
<path d="M42.4586 44.8015H24.323V48.5828H42.4586V44.8015Z" fill="#457980"/>
<path d="M46.7001 29.7702H24.323V33.5515H46.7001V29.7702Z" fill="#457980"/>
<path d="M33.88 59.8329H24.323V63.6142H33.88V59.8329Z" fill="#457980"/>
<path d="M8.71021 26.0202V26.0202V29.8015V33.5202V37.3015V37.3015H12.4916V37.3015H16.2102V37.3015H19.9916V37.3015V33.5202V29.8015V26.0202V26.0202H8.71021ZM16.2102 33.5202H12.4916V29.8015H16.2102V33.5202Z" fill="#457980"/>
<path d="M8.71021 41.0515V41.0515V44.8328V48.5515V52.3328H12.4916H16.2102H19.9916V48.5515V44.8328V41.0515V41.0515H8.71021ZM16.2102 48.5515H12.4916V44.8328H16.2102V48.5515Z" fill="#457980"/>
<path d="M12.9001 68.3075L7.73071 63.1379L10.3824 60.4862L12.9001 63.004L19.8213 56.0828L22.473 58.7346L12.9001 68.3075Z" fill="#457980"/>
<path d="M0 16.157V79.8429H38.0375L53.9217 62.3666V16.157H0Z" fill="url(#paint0_linear_513_247)"/>
<defs>
<linearGradient id="paint0_linear_513_247" x1="-2.4411" y1="18.5981" x2="48.4207" y2="69.4598" gradientUnits="userSpaceOnUse">
<stop stop-color="white" stop-opacity="0.33"/>
<stop offset="1" stop-color="white" stop-opacity="0"/>
</linearGradient>
</defs>
</svg>
