<svg width="16" height="12" viewBox="0 0 16 12" fill="none" xmlns="http://www.w3.org/2000/svg">
<path d="M15.646 1.95266L15.666 2.08332C15.4727 1.39732 14.9507 0.86799 14.2873 0.675323L14.2733 0.671989C13.026 0.333322 8.00668 0.333322 8.00668 0.333322C8.00668 0.333322 3.00001 0.326655 1.74001 0.671989C1.06401 0.867989 0.541346 1.39732 0.351346 2.06932L0.348013 2.08332C-0.117987 4.51733 -0.12132 7.442 0.36868 10.048L0.348013 9.916C0.541346 10.602 1.06335 11.1313 1.72668 11.324L1.74068 11.3273C2.98668 11.6667 8.00735 11.6667 8.00735 11.6667C8.00735 11.6667 13.0133 11.6667 14.274 11.3273C14.9507 11.1313 15.4733 10.602 15.6633 9.93L15.6667 9.916C15.8787 8.784 16 7.48133 16 6.15066C16 6.102 16 6.05266 15.9993 6.00333C16 5.958 16 5.904 16 5.85C16 4.51866 15.8787 3.21599 15.646 1.95266ZM6.40535 8.434V3.57199L10.5827 6.00666L6.40535 8.434Z" fill="#92ADB3"/>
</svg>
