<svg width="96" height="96" viewBox="0 0 96 96" fill="none" xmlns="http://www.w3.org/2000/svg">
<path d="M36 12.7V64.3C42.5 64.3 48.4 60.2 50.7 54.1L56.2 56.1C53.1 64.5 45 70.1 36.1 70.1V84.6C56 84.6 72.1 68.5 72.1 48.6C72.1 28.7 55.9 12.7 36 12.7ZM47.1 47.8C43.9 47.8 41.3 45.2 41.3 42C41.3 38.8 43.9 36.2 47.1 36.2C50.3 36.2 52.9 38.8 52.9 42C52.9 45.2 50.3 47.8 47.1 47.8Z" fill="#6EC0CC"/>
<path d="M15.9 56.1L21.4 54.1C23.7 60.2 29.6 64.3 36.1 64.3V12.7C16.2 12.7 0.100006 28.8 0.100006 48.7C0.100006 68.6 16.2 84.7 36.1 84.7V70.1C27.1 70.1 19 64.5 15.9 56.1ZM24.9 36.2C28.1 36.2 30.7 38.8 30.7 42C30.7 45.2 28.1 47.8 24.9 47.8C21.7 47.8 19.1 45.2 19.1 42C19.1 38.8 21.7 36.2 24.9 36.2Z" fill="#6EC0CC"/>
<path d="M47.1 36.2C43.9 36.2 41.3 38.8 41.3 42C41.3 45.2 43.9 47.8 47.1 47.8C50.3 47.8 52.9 45.2 52.9 42C52.9 38.8 50.3 36.2 47.1 36.2Z" fill="#457980"/>
<path d="M24.9 47.8C28.1 47.8 30.7 45.2 30.7 42C30.7 38.8 28.1 36.2 24.9 36.2C21.7 36.2 19.1 38.8 19.1 42C19.1 45.2 21.7 47.8 24.9 47.8Z" fill="#457980"/>
<path d="M56.1 56.1L50.6 54.1C48.3 60.2 42.4 64.3 35.9 64.3V70.1C44.9 70.1 53 64.5 56.1 56.1Z" fill="#457980"/>
<path d="M21.3 54.1L15.8 56.1C18.9 64.5 27 70.1 35.9 70.1V64.3C29.5 64.3 23.6 60.2 21.3 54.1Z" fill="#457980"/>
<path d="M36 84.7C16.1 84.7 0 68.6 0 48.7C0 28.8 16.1 12.7 36 12.7C55.9 12.7 72 28.8 72 48.7C72 68.6 55.8 84.7 36 84.7Z" fill="url(#paint0_linear_526_839)"/>
<defs>
<linearGradient id="paint0_linear_526_839" x1="0" y1="48.6829" x2="72" y2="48.6829" gradientUnits="userSpaceOnUse">
<stop stop-color="white" stop-opacity="0.33"/>
<stop offset="1" stop-color="white" stop-opacity="0"/>
</linearGradient>
</defs>
</svg>
