<svg width="174" height="52" viewBox="0 0 174 52" fill="none" xmlns="http://www.w3.org/2000/svg">
<g clip-path="url(#clip0_646_178)">
<path d="M36.5062 49.5733C35.819 49.4 35.1319 49.8333 35.046 50.44C34.8742 51.1333 35.3037 51.8267 35.9049 51.9133C36.5921 52.0867 37.2793 51.6533 37.3652 51.0467C37.6229 50.3533 37.1934 49.7467 36.5062 49.5733Z" fill="#6EC0CC"/>
<path d="M30.0641 48.0133C29.2052 47.7533 28.2603 48.36 28.0885 49.2266C27.8308 50.0933 28.4321 51.0466 29.2911 51.22C30.15 51.48 31.0949 50.8733 31.2667 50.0066C31.5244 49.14 31.009 48.1866 30.0641 48.0133Z" fill="#6EC0CC"/>
<path d="M23.2783 44.72C22.2475 44.46 21.1308 45.0666 20.8732 46.1933C20.6155 47.2333 21.2167 48.36 22.3334 48.62C23.3641 48.88 24.4808 48.2733 24.7385 47.1466C24.9962 46.1066 24.309 44.98 23.2783 44.72Z" fill="#6EC0CC"/>
<path d="M17.6087 44.2867C18.8896 44.2867 19.9279 43.239 19.9279 41.9467C19.9279 40.6543 18.8896 39.6067 17.6087 39.6067C16.3279 39.6067 15.2896 40.6543 15.2896 41.9467C15.2896 43.239 16.3279 44.2867 17.6087 44.2867Z" fill="#6EC0CC"/>
<path d="M13.2303 38.7094C14.7293 38.4668 15.7494 37.0441 15.509 35.5317C15.2685 34.0194 13.8585 32.99 12.3596 33.2326C10.8606 33.4753 9.84044 34.898 10.0809 36.4103C10.3214 37.9227 11.7314 38.952 13.2303 38.7094Z" fill="#6EC0CC"/>
<path d="M13.0564 28.9466C13.1423 27.82 12.541 26.78 11.5103 26.3466C9.87826 25.6533 8.07444 26.6933 7.90265 28.5133C7.81675 29.64 8.41803 30.68 9.44878 31.1133C11.0808 31.8066 12.8846 30.68 13.0564 28.9466Z" fill="#6EC0CC"/>
<path d="M9.29407 23.7646C10.2459 23.4678 10.779 22.4487 10.4848 21.4884C10.1906 20.528 9.18053 19.9902 8.22874 20.287C7.27695 20.5838 6.74385 21.6029 7.03804 22.5633C7.33222 23.5236 8.34228 24.0615 9.29407 23.7646Z" fill="#6EC0CC"/>
<path d="M7.98847 17.7667C8.88982 17.7667 9.6205 17.0294 9.6205 16.12C9.6205 15.2106 8.88982 14.4733 7.98847 14.4733C7.08713 14.4733 6.35645 15.2106 6.35645 16.12C6.35645 17.0294 7.08713 17.7667 7.98847 17.7667Z" fill="#3F4B4D"/>
<path d="M12.7989 14.3C13.8426 14.3 14.6886 13.4464 14.6886 12.3933C14.6886 11.3403 13.8426 10.4867 12.7989 10.4867C11.7552 10.4867 10.9092 11.3403 10.9092 12.3933C10.9092 13.4464 11.7552 14.3 12.7989 14.3Z" fill="#3F4B4D"/>
<path d="M19.9279 8.92665C18.8972 8.31999 17.5229 8.57999 16.8357 9.70665C16.2344 10.7467 16.4921 12.1333 17.6088 12.8267C18.6395 13.4333 20.0138 13.1733 20.701 12.0467C21.3023 11.0067 20.9587 9.61999 19.9279 8.92665Z" fill="#3F4B4D"/>
<path d="M26.628 11.6133C27.2293 10.66 26.8857 9.35999 25.9408 8.75332C24.996 8.14665 23.7075 8.49332 23.1063 9.44665C22.505 10.4 22.8486 11.7 23.7934 12.3066C24.8242 12.8266 26.1126 12.5666 26.628 11.6133Z" fill="#3F4B4D"/>
<path d="M31.3572 11.6785C31.6918 10.9911 31.4107 10.1601 30.7294 9.82255C30.0481 9.48497 29.2246 9.76857 28.89 10.456C28.5554 11.1434 28.8365 11.9743 29.5178 12.3119C30.1991 12.6495 31.0226 12.3659 31.3572 11.6785Z" fill="#3F4B4D"/>
<path d="M35.3036 11.5266C34.7023 11.0933 33.9293 11.2666 33.4998 11.8733C33.0703 12.48 33.2421 13.26 33.8434 13.6933C34.4447 14.1266 35.2177 13.9533 35.6472 13.3466C36.0767 12.74 35.9049 11.96 35.3036 11.5266Z" fill="#3F4B4D"/>
<path d="M38.8255 11.0066C38.0524 11.7 38.0524 12.8266 38.6537 13.52C39.3408 14.3 40.4575 14.3 41.1447 13.6933C41.8318 13.0866 41.9177 11.8733 41.3164 11.18C40.7152 10.4 39.5985 10.4 38.8255 11.0066Z" fill="#457980"/>
<path d="M39.942 19.6733C40.6292 19.0666 40.715 18.0266 40.1138 17.3333C39.5125 16.64 38.4818 16.5533 37.7946 17.16C37.1074 17.7666 37.0215 18.8066 37.6228 19.5C38.2241 20.28 39.2548 20.28 39.942 19.6733Z" fill="#457980"/>
<path d="M36.5063 23.7467C37.123 23.7467 37.6229 23.2422 37.6229 22.62C37.6229 21.9977 37.123 21.4933 36.5063 21.4933C35.8896 21.4933 35.3896 21.9977 35.3896 22.62C35.3896 23.2422 35.8896 23.7467 36.5063 23.7467Z" fill="#457980"/>
<path d="M0.34382 14.9933C-0.171557 15.5133 -0.0856605 16.2933 0.34382 16.7266C0.859197 17.2466 1.63226 17.16 2.06174 16.7266C2.57712 16.2066 2.49122 15.4266 2.06174 14.9933C1.63226 14.4733 0.859197 14.4733 0.34382 14.9933Z" fill="#6EC0CC"/>
<path d="M5.49775 12.3933C6.39909 12.3933 7.12978 11.6561 7.12978 10.7467C7.12978 9.83724 6.39909 9.10001 5.49775 9.10001C4.59641 9.10001 3.86572 9.83724 3.86572 10.7467C3.86572 11.6561 4.59641 12.3933 5.49775 12.3933Z" fill="#6EC0CC"/>
<path d="M12.8846 7.54C13.6577 6.76 13.6577 5.46 12.8846 4.68C12.1115 3.9 10.8231 3.9 10.05 4.68C9.27695 5.46 9.27695 6.76 10.05 7.54C10.8231 8.40667 12.1115 8.40667 12.8846 7.54Z" fill="#6EC0CC"/>
<path d="M18.1244 6.32667C19.4052 6.32667 20.4436 5.27901 20.4436 3.98667C20.4436 2.69432 19.4052 1.64667 18.1244 1.64667C16.8435 1.64667 15.8052 2.69432 15.8052 3.98667C15.8052 5.27901 16.8435 6.32667 18.1244 6.32667Z" fill="#6EC0CC"/>
<path d="M25.6255 5.54687C27.1436 5.53167 28.362 4.27768 28.3469 2.74601C28.3318 1.21434 27.089 -0.0149973 25.5709 0.000208316C24.0529 0.0154139 22.8345 1.2694 22.8496 2.80107C22.8646 4.33274 24.1075 5.56208 25.6255 5.54687Z" fill="#6EC0CC"/>
<path d="M31.5241 6.58665C32.3831 7.19331 33.5856 7.19331 34.5305 6.58665C35.9907 5.54665 35.9048 3.37998 34.4446 2.33998C33.5856 1.73331 32.3831 1.73331 31.4382 2.33998C30.0639 3.37998 30.0639 5.54665 31.5241 6.58665Z" fill="#6EC0CC"/>
<path d="M40.8867 7.53999C41.5739 6.84665 41.5739 5.71999 40.8867 5.02665C40.1996 4.33332 39.0829 4.33332 38.3957 5.02665C37.7086 5.71999 37.7086 6.84665 38.3957 7.53999C39.0829 8.23332 40.1996 8.23332 40.8867 7.53999Z" fill="#457980"/>
<path d="M45.8689 9.88C46.642 9.44667 46.8997 8.49334 46.4702 7.71334C46.0407 6.93334 45.0959 6.67334 44.3228 7.10667C43.5497 7.54 43.2921 8.49334 43.7215 9.27334C44.151 10.0533 45.0959 10.3133 45.8689 9.88Z" fill="#3F4B4D"/>
<path d="M44.9241 12.9133C43.9792 13.4333 43.7215 14.56 44.151 15.5133C44.6664 16.4667 45.7831 16.7267 46.7279 16.2933C47.6728 15.7733 47.9305 14.6467 47.501 13.6933C46.9856 12.74 45.869 12.3933 44.9241 12.9133Z" fill="#3F4B4D"/>
<path d="M44.1508 22.7933C45.3842 22.7933 46.3841 21.7845 46.3841 20.54C46.3841 19.2955 45.3842 18.2867 44.1508 18.2867C42.9174 18.2867 41.9175 19.2955 41.9175 20.54C41.9175 21.7845 42.9174 22.7933 44.1508 22.7933Z" fill="#3F4B4D"/>
<path d="M42.7245 27.7126C43.625 27.0095 43.7901 25.7031 43.0933 24.7945C42.3966 23.886 41.1017 23.7194 40.2012 24.4224C39.3008 25.1255 39.1357 26.4319 39.8324 27.3404C40.5292 28.249 41.8241 28.4156 42.7245 27.7126Z" fill="#3F4B4D"/>
<path d="M37.6228 29.12C36.9356 29.4667 36.6779 30.3333 37.1074 31.0267C37.451 31.72 38.31 31.98 38.9971 31.6333C39.6843 31.2867 39.942 30.42 39.5984 29.7267C39.1689 28.9467 38.31 28.7733 37.6228 29.12Z" fill="#3F4B4D"/>
<path d="M35.9907 32.9333C35.6472 32.24 34.8741 31.98 34.2728 32.3267C33.5856 32.6733 33.328 33.4533 33.6715 34.06C34.0151 34.7533 34.7882 35.0133 35.3895 34.6667C35.9907 34.4067 36.3343 33.6267 35.9907 32.9333Z" fill="#3F4B4D"/>
<path d="M31.9534 36.66C31.0085 36.8333 30.4073 37.7866 30.5791 38.8266C30.7508 39.78 31.6957 40.3866 32.7265 40.2133C33.6713 40.04 34.2726 39.0866 34.1008 38.0466C33.8431 37.0933 32.8983 36.4866 31.9534 36.66Z" fill="#457980"/>
<path d="M26.0269 34.6667C26.1987 35.5333 27.0577 36.14 28.0026 35.9667C28.9474 35.7933 29.4628 34.9267 29.291 33.9733C29.1192 33.1067 28.2602 32.5 27.3154 32.6734C26.4564 32.9334 25.8551 33.8 26.0269 34.6667Z" fill="#457980"/>
<path d="M26.3706 29.9866C26.2847 29.38 25.6834 28.9466 24.9963 29.12C24.395 29.2066 23.9655 29.8133 24.1373 30.5066C24.2232 31.1133 24.8245 31.5466 25.5116 31.3733C26.1129 31.2 26.4565 30.5933 26.3706 29.9866Z" fill="#457980"/>
<path d="M48.961 3.89998C49.6482 3.72664 49.9918 3.03331 49.82 2.33998C49.6482 1.64664 48.961 1.29998 48.2738 1.47331C47.5867 1.64664 47.2431 2.33998 47.4149 3.03331C47.6726 3.72664 48.3597 4.15998 48.961 3.89998Z" fill="#6EC0CC"/>
<path d="M49.3046 9.53333C49.5623 10.4 50.4212 10.92 51.3661 10.66C52.2251 10.4 52.7404 9.53333 52.4827 8.58C52.225 7.71333 51.3661 7.19333 50.4212 7.45333C49.6482 7.71333 49.1328 8.58 49.3046 9.53333Z" fill="#6EC0CC"/>
<path d="M53.7714 15.9467C53.5137 14.9067 52.3971 14.3 51.2804 14.56C50.1638 14.82 49.6484 15.9467 49.9061 17.0733C50.1637 18.1133 51.2804 18.72 52.3971 18.46C53.5137 18.2 54.115 17.0733 53.7714 15.9467Z" fill="#6EC0CC"/>
<path d="M49.8201 21.1466C48.5317 21.4933 47.8445 22.7933 48.1881 24.0933C48.5317 25.3933 49.8201 26.0866 51.1086 25.74C52.397 25.3933 53.0842 24.0933 52.7406 22.7933C52.3111 21.4933 51.0227 20.8 49.8201 21.1466Z" fill="#6EC0CC"/>
<path d="M47.9948 33.3532C49.5027 33.1757 50.5825 31.7984 50.4065 30.277C50.2306 28.7556 48.8656 27.6662 47.3577 27.8437C45.8498 28.0212 44.7701 29.3985 44.946 30.9199C45.122 32.4413 46.487 33.5307 47.9948 33.3532Z" fill="#6EC0CC"/>
<path d="M41.4879 33.8867C40.543 34.32 39.9418 35.4467 40.0277 36.4867C40.1995 38.3067 42.0892 39.3467 43.7212 38.5667C44.6661 38.1333 45.2673 37.0067 45.1814 35.9667C44.9237 34.1467 43.1199 33.1067 41.4879 33.8867Z" fill="#6EC0CC"/>
<path d="M37.7086 42.9C38.7048 42.9 39.5124 42.0851 39.5124 41.08C39.5124 40.0748 38.7048 39.26 37.7086 39.26C36.7124 39.26 35.9048 40.0748 35.9048 41.08C35.9048 42.0851 36.7124 42.9 37.7086 42.9Z" fill="#457980"/>
<path d="M33.8633 46.2387C34.6545 45.8031 34.9459 44.8028 34.5141 44.0045C34.0824 43.2062 33.091 42.9122 32.2998 43.3478C31.5086 43.7835 31.2172 44.7837 31.6489 45.582C32.0807 46.3803 33.0721 46.6743 33.8633 46.2387Z" fill="#3F4B4D"/>
<path d="M29.1611 43.1884C29.6205 42.2428 29.2331 41.1006 28.2958 40.6371C27.3586 40.1737 26.2265 40.5646 25.7672 41.5102C25.3079 42.4558 25.6953 43.5981 26.6325 44.0615C27.5697 44.5249 28.7018 44.1341 29.1611 43.1884Z" fill="#3F4B4D"/>
<path d="M23.1923 35.7067C21.9897 35.7067 20.959 36.66 20.959 37.8733C20.959 39.0867 21.9038 40.1267 23.1064 40.1267C24.3089 40.1267 25.3397 39.1733 25.3397 37.96C25.4256 36.7467 24.4807 35.7067 23.1923 35.7067Z" fill="#3F4B4D"/>
<path d="M19.7563 34.84C20.8949 34.84 21.8178 33.9087 21.8178 32.76C21.8178 31.6112 20.8949 30.68 19.7563 30.68C18.6178 30.68 17.6948 31.6112 17.6948 32.76C17.6948 33.9087 18.6178 34.84 19.7563 34.84Z" fill="#3F4B4D"/>
<path d="M17.695 29.2933C18.4681 29.2933 19.1552 28.6867 19.1552 27.9067C19.1552 27.1267 18.554 26.4333 17.7809 26.4333C17.0078 26.4333 16.3207 27.04 16.3207 27.82C16.2348 28.6867 16.836 29.2933 17.695 29.2933Z" fill="#3F4B4D"/>
<path d="M18.0383 23.4C18.1242 22.7067 17.6088 22.0133 16.8358 21.9267C16.1486 21.84 15.4614 22.36 15.3755 23.14C15.2896 23.8333 15.805 24.5266 16.5781 24.6133C17.3512 24.6133 17.9524 24.0933 18.0383 23.4Z" fill="#3F4B4D"/>
<path d="M15.6356 18.717C15.7129 17.7148 14.9704 16.8392 13.9771 16.7613C12.9839 16.6833 12.1161 17.4325 12.0388 18.4347C11.9616 19.4368 12.7041 20.3124 13.6973 20.3904C14.6906 20.4683 15.5584 19.7191 15.6356 18.717Z" fill="#457980"/>
<path d="M19.5847 18.2867C20.486 18.2867 21.2167 17.5494 21.2167 16.64C21.2167 15.7306 20.486 14.9933 19.5847 14.9933C18.6833 14.9933 17.9526 15.7306 17.9526 16.64C17.9526 17.5494 18.6833 18.2867 19.5847 18.2867Z" fill="#457980"/>
<path d="M23.2783 16.2067C23.1065 16.8133 23.3642 17.42 23.9655 17.68C24.5668 17.8533 25.168 17.5933 25.4257 16.9867C25.5975 16.38 25.3398 15.7733 24.7386 15.5133C24.1373 15.2533 23.536 15.6 23.2783 16.2067Z" fill="#457980"/>
<path d="M65.7217 20.1883H68.3509V27.6273L73.8052 20.1883H76.2874V31.6079H73.6746V24.1851L68.2202 31.6079H65.7217V20.1883Z" fill="#3F4B4D"/>
<path d="M87.8704 22.3417H84.2124V31.6079H81.5995V22.3417H77.9578V20.1883H87.8704V22.3417Z" fill="#3F4B4D"/>
<path d="M97.8143 19.9925C98.9465 19.9925 99.959 20.2481 100.852 20.7592C101.755 21.2595 102.463 21.961 102.975 22.8637C103.486 23.7555 103.742 24.767 103.742 25.8981C103.742 27.0291 103.486 28.046 102.975 28.9487C102.463 29.8405 101.755 30.542 100.852 31.0532C99.959 31.5535 98.9465 31.8036 97.8143 31.8036C96.8018 31.8036 95.8873 31.6296 95.0708 31.2816C94.2652 30.9336 93.5902 30.4278 93.0458 29.7644L94.7279 28.1983C95.5335 29.101 96.5188 29.5523 97.6837 29.5523C98.522 29.5523 99.2296 29.3076 99.8066 28.8182C100.395 28.3288 100.776 27.6708 100.95 26.8443H96.3119V24.8214H100.917C100.732 24.0383 100.351 23.4129 99.774 22.9453C99.1969 22.4776 98.5002 22.2438 97.6837 22.2438C96.5188 22.2438 95.5335 22.6951 94.7279 23.5978L93.0458 22.0317C93.5902 21.3683 94.2652 20.8626 95.0708 20.5145C95.8873 20.1665 96.8018 19.9925 97.8143 19.9925Z" fill="#3F4B4D"/>
<path d="M110.24 27.0074H108.411V31.6079H105.781V20.1883H108.411V24.805H110.305L113.31 20.1883H116.102L112.362 25.7023L116.216 31.6079H113.212L110.24 27.0074Z" fill="#3F4B4D"/>
<path d="M122.813 31.8036C121.648 31.8036 120.592 31.5535 119.645 31.0532C118.709 30.542 117.969 29.8405 117.424 28.9487C116.891 28.046 116.624 27.0291 116.624 25.8981C116.624 24.767 116.891 23.7555 117.424 22.8637C117.969 21.961 118.709 21.2595 119.645 20.7592C120.592 20.2481 121.654 19.9925 122.83 19.9925C123.82 19.9925 124.713 20.1665 125.508 20.5145C126.313 20.8626 126.988 21.3628 127.533 22.0154L125.834 23.5815C125.061 22.6897 124.103 22.2438 122.96 22.2438C122.253 22.2438 121.621 22.4015 121.066 22.7169C120.511 23.0214 120.075 23.451 119.76 24.0057C119.455 24.5603 119.302 25.1911 119.302 25.8981C119.302 26.605 119.455 27.2358 119.76 27.7905C120.075 28.3451 120.511 28.7802 121.066 29.0956C121.621 29.4001 122.253 29.5523 122.96 29.5523C124.103 29.5523 125.061 29.101 125.834 28.1983L127.533 29.7644C126.988 30.4278 126.313 30.9336 125.508 31.2816C124.702 31.6296 123.804 31.8036 122.813 31.8036Z" fill="#3F4B4D"/>
<path d="M139.676 20.1883V31.6079H137.047V22.3417H131.886V31.6079H129.257V20.1883H139.676Z" fill="#3F4B4D"/>
<path d="M151.361 29.4871V31.6079H142.51V20.1883H151.148V22.309H145.139V24.7887H150.446V26.8443H145.139V29.4871H151.361Z" fill="#3F4B4D"/>
<path d="M158.446 20.1883C159.458 20.1883 160.334 20.3568 161.075 20.694C161.826 21.0311 162.403 21.5097 162.806 22.1296C163.209 22.7495 163.41 23.4836 163.41 24.3319C163.41 25.1694 163.209 25.9035 162.806 26.5343C162.403 27.1542 161.826 27.6328 161.075 27.9699C160.334 28.2962 159.458 28.4593 158.446 28.4593H156.143V31.6079H153.497V20.1883H158.446ZM158.299 26.3059C159.093 26.3059 159.698 26.1373 160.111 25.8002C160.525 25.4522 160.732 24.9627 160.732 24.3319C160.732 23.6903 160.525 23.2009 160.111 22.8637C159.698 22.5157 159.093 22.3417 158.299 22.3417H156.143V26.3059H158.299Z" fill="#3F4B4D"/>
<path d="M173.573 22.3417H169.915V31.6079H167.302V22.3417H163.66V20.1883H173.573V22.3417Z" fill="#3F4B4D"/>
</g>
<defs>
<clipPath id="clip0_646_178">
<rect width="173.51" height="52" fill="white"/>
</clipPath>
</defs>
</svg>
