<svg width="96" height="96" viewBox="0 0 96 96" fill="none" xmlns="http://www.w3.org/2000/svg">
<g clip-path="url(#clip0_526_857)">
<path d="M71.9 36.6C70.8 25 62.7 16.6 52.4 16.6C45.6 16.6 39.3 20.3 35.8 26.2C32.3 20.2 26.3 16.6 19.6 16.6C9.40001 16.6 1.20001 25 0.100007 36.6C6.63847e-06 37.1 -0.299993 39.8 0.700007 44.2C2.20001 50.5 5.60001 56.3 10.7 60.8L35.8 83.6L61.3 60.8C66.3 56.2 69.8 50.5 71.3 44.2C72.3 39.8 72 37.1 71.9 36.6Z" fill="#6EC0CC"/>
<path d="M71.9 36.6C70.8 25 62.7 16.6 52.4 16.6C45.6 16.6 39.3 20.3 35.8 26.2V83.6L61.3 60.9C66.3 56.3 69.8 50.6 71.3 44.3C72.3 39.8 72 37.1 71.9 36.6Z" fill="#457980"/>
<path d="M71.9 36.6C70.8 25 62.7 16.6 52.4 16.6C45.6 16.6 39.3 20.3 35.8 26.2C32.3 20.2 26.3 16.6 19.6 16.6C9.40001 16.6 1.20001 25 0.100007 36.6C6.63847e-06 37.1 -0.299993 39.8 0.700007 44.2C2.20001 50.5 5.60001 56.3 10.7 60.8L35.8 83.6L61.3 60.8C66.3 56.2 69.8 50.5 71.3 44.2C72.3 39.8 72 37.1 71.9 36.6Z" fill="url(#paint0_linear_526_857)"/>
</g>
<defs>
<linearGradient id="paint0_linear_526_857" x1="6.63645e-06" y1="50.1463" x2="72" y2="50.1463" gradientUnits="userSpaceOnUse">
<stop stop-color="white" stop-opacity="0.33"/>
<stop offset="1" stop-color="white" stop-opacity="0"/>
</linearGradient>
<clipPath id="clip0_526_857">
<rect width="96" height="96" fill="white"/>
</clipPath>
</defs>
</svg>
