<svg width="96" height="96" viewBox="0 0 96 96" fill="none" xmlns="http://www.w3.org/2000/svg">
<path d="M72 40.7L48.3 39L36 14.3L23.5 39L0 40.7L15.8 59.7L11.3 84.1L36 72.8L60.8 84L56.2 59.6C56.2 59.7 72 40.7 72 40.7Z" fill="#6EC0CC"/>
<path d="M60.7 84.1L56.2 59.7L72 40.7L48.3 39L36 14.3V72.8L60.7 84.1Z" fill="#457980"/>
<path d="M72 40.7L48.3 39L36 14.3L23.5 39L0 40.7L15.8 59.7L11.3 84.1L36 72.8L60.8 84L56.2 59.6C56.2 59.7 72 40.7 72 40.7Z" fill="url(#paint0_linear_526_848)"/>
<defs>
<linearGradient id="paint0_linear_526_848" x1="0" y1="49.1951" x2="72" y2="49.1951" gradientUnits="userSpaceOnUse">
<stop stop-color="white" stop-opacity="0.33"/>
<stop offset="1" stop-color="white" stop-opacity="0"/>
</linearGradient>
</defs>
</svg>
